<?xml version="1.0" encoding="UTF-8" standalone="no"?>
<svg
   xmlns:dc="http://purl.org/dc/elements/1.1/"
   xmlns:cc="http://creativecommons.org/ns#"
   xmlns:rdf="http://www.w3.org/1999/02/22-rdf-syntax-ns#"
   xmlns:svg="http://www.w3.org/2000/svg"
   xmlns="http://www.w3.org/2000/svg"
   xmlns:xlink="http://www.w3.org/1999/xlink"
   xmlns:sodipodi="http://sodipodi.sourceforge.net/DTD/sodipodi-0.dtd"
   xmlns:inkscape="http://www.inkscape.org/namespaces/inkscape"
   viewBox="-1024 -1024 850 100.00003"
   width="249.02344"
   height="29.296885"
   id="svg3086"
   version="1.1"
   inkscape:version="0.48.3.1 r9886"
   sodipodi:docname="minutes.svg">
  <metadata
     id="metadata3147">
    <rdf:RDF>
      <cc:Work
         rdf:about="">
        <dc:format>image/svg+xml</dc:format>
        <dc:type
           rdf:resource="http://purl.org/dc/dcmitype/StillImage" />
        <dc:title>Swiss Railway Clock</dc:title>
      </cc:Work>
    </rdf:RDF>
  </metadata>
  <sodipodi:namedview
     pagecolor="#ffffff"
     bordercolor="#666666"
     borderopacity="1"
     objecttolerance="10"
     gridtolerance="10"
     guidetolerance="10"
     inkscape:pageopacity="0"
     inkscape:pageshadow="2"
     inkscape:window-width="1556"
     inkscape:window-height="864"
     id="namedview3145"
     showgrid="false"
     inkscape:zoom="0.78666667"
     inkscape:cx="-342.76921"
     inkscape:cy="-24.204751"
     inkscape:window-x="65"
     inkscape:window-y="24"
     inkscape:window-maximized="0"
     inkscape:current-layer="svg3086"
     fit-margin-top="0"
     fit-margin-left="0"
     fit-margin-right="0"
     fit-margin-bottom="0" />
  <title
     id="title3088">Swiss Railway Clock</title>
  <style
     type="text/css"
     id="style3090">
    .bg {stroke: none; fill: white;}
    .fc {stroke: none; fill: black;}
    .h1 {stroke: none; fill: black;}
    .h2 {stroke: none; fill: #aa0000;}
  </style>
  <defs
     id="defs3092">
    <path
       id="mark1"
       d="m -20,-1000 40,0 0,100 -40,0 z"
       inkscape:connector-curvature="0" />
    <path
       id="mark2"
       d="m -40,-1000 80,0 0,240 -80,0 z"
       inkscape:connector-curvature="0" />
    <path
       id="mark3"
       d="m -40,-1000 80,0 0,300 -80,0 z"
       inkscape:connector-curvature="0" />
    <path
       id="handh"
       d="m -50,-600 50,-50 50,50 0,800 -100,0 z"
       inkscape:connector-curvature="0" />
    <path
       id="handm"
       d="m -40,-900 40,-40 40,40 0,1180 -80,0 z"
       inkscape:connector-curvature="0" />
    <g
       id="hands">
      <path
         d="m -10,-910 10,-10 10,10 2,300 -24,0 z m -3,520 26,0 7,690 -40,0 z"
         id="path3100"
         inkscape:connector-curvature="0" />
      <path
         d="m 0,-620 a 120,120 0 0 1 0,240 120,120 0 0 1 0,-240 z m 0,60 a 60,60 0 0 0 0,120 60,60 0 0 0 0,-120 z"
         id="path3102"
         inkscape:connector-curvature="0" />
    </g>
    <g
       id="face1">
      <use
         xlink:href="#mark1"
         transform="matrix(0.9945219,0.10452846,-0.10452846,0.9945219,0,0)"
         id="use3105"
         x="0"
         y="0"
         width="2048"
         height="2048" />
      <use
         xlink:href="#mark1"
         transform="matrix(0.9781476,0.20791169,-0.20791169,0.9781476,0,0)"
         id="use3107"
         x="0"
         y="0"
         width="2048"
         height="2048" />
      <use
         xlink:href="#mark1"
         transform="matrix(0.95105652,0.30901699,-0.30901699,0.95105652,0,0)"
         id="use3109"
         x="0"
         y="0"
         width="2048"
         height="2048" />
      <use
         xlink:href="#mark1"
         transform="matrix(0.91354546,0.40673664,-0.40673664,0.91354546,0,0)"
         id="use3111"
         x="0"
         y="0"
         width="2048"
         height="2048" />
    </g>
    <g
       id="face2">
      <use
         xlink:href="#face1"
         id="use3114"
         x="0"
         y="0"
         width="2048"
         height="2048" />
      <use
         xlink:href="#face1"
         transform="matrix(0.8660254,0.5,-0.5,0.8660254,0,0)"
         id="use3116"
         x="0"
         y="0"
         width="2048"
         height="2048" />
      <use
         xlink:href="#face1"
         transform="matrix(0.5,0.8660254,-0.8660254,0.5,0,0)"
         id="use3118"
         x="0"
         y="0"
         width="2048"
         height="2048" />
      <use
         xlink:href="#mark3"
         id="use3120"
         x="0"
         y="0"
         width="2048"
         height="2048" />
      <use
         xlink:href="#mark2"
         transform="matrix(0.8660254,0.5,-0.5,0.8660254,0,0)"
         id="use3122"
         x="0"
         y="0"
         width="2048"
         height="2048" />
      <use
         xlink:href="#mark2"
         transform="matrix(0.5,0.8660254,-0.8660254,0.5,0,0)"
         id="use3124"
         x="0"
         y="0"
         width="2048"
         height="2048" />
    </g>
    <g
       id="face">
      <use
         xlink:href="#face2"
         id="use3127"
         x="0"
         y="0"
         width="2048"
         height="2048" />
      <use
         xlink:href="#face2"
         transform="matrix(0,1,-1,0,0,0)"
         id="use3129"
         x="0"
         y="0"
         width="2048"
         height="2048" />
      <use
         xlink:href="#face2"
         transform="scale(-1,-1)"
         id="use3131"
         x="0"
         y="0"
         width="2048"
         height="2048" />
      <use
         xlink:href="#face2"
         transform="matrix(0,-1,1,0,0,0)"
         id="use3133"
         x="0"
         y="0"
         width="2048"
         height="2048" />
    </g>
  </defs>
  <use
     xlink:href="#handh"
     class="h1"
     transform="matrix(4.4264875e-8,1,-1,4.4264875e-8,-824,-973.99997)"
     id="use3139"
     style="fill:#000000;stroke:none"
     x="0"
     y="0"
     width="2048"
     height="2048" />
  <!-- hands at 10:09:02 -->
</svg>
