<?xml version="1.0" encoding="UTF-8" standalone="no"?>
<svg
   xmlns:dc="http://purl.org/dc/elements/1.1/"
   xmlns:cc="http://creativecommons.org/ns#"
   xmlns:rdf="http://www.w3.org/1999/02/22-rdf-syntax-ns#"
   xmlns:svg="http://www.w3.org/2000/svg"
   xmlns="http://www.w3.org/2000/svg"
   xmlns:xlink="http://www.w3.org/1999/xlink"
   xmlns:sodipodi="http://sodipodi.sourceforge.net/DTD/sodipodi-0.dtd"
   xmlns:inkscape="http://www.inkscape.org/namespaces/inkscape"
   viewBox="-1024 -1024 2048 2048"
   width="600"
   height="600"
   id="svg3086"
   version="1.1"
   inkscape:version="0.48.3.1 r9886"
   sodipodi:docname="swiss.svg">
  <metadata
     id="metadata3147">
    <rdf:RDF>
      <cc:Work
         rdf:about="">
        <dc:format>image/svg+xml</dc:format>
        <dc:type
           rdf:resource="http://purl.org/dc/dcmitype/StillImage" />
        <dc:title>Swiss Railway Clock</dc:title>
      </cc:Work>
    </rdf:RDF>
  </metadata>
  <sodipodi:namedview
     pagecolor="#ffffff"
     bordercolor="#666666"
     borderopacity="1"
     objecttolerance="10"
     gridtolerance="10"
     guidetolerance="10"
     inkscape:pageopacity="0"
     inkscape:pageshadow="2"
     inkscape:window-width="1556"
     inkscape:window-height="864"
     id="namedview3145"
     showgrid="false"
     inkscape:zoom="0.78666667"
     inkscape:cx="281.36123"
     inkscape:cy="343.03412"
     inkscape:window-x="65"
     inkscape:window-y="24"
     inkscape:window-maximized="0"
     inkscape:current-layer="svg3086" />
  <title
     id="title3088">Swiss Railway Clock</title>
  <style
     type="text/css"
     id="style3090">
    .bg {stroke: none; fill: white;}
    .fc {stroke: none; fill: black;}
    .h1 {stroke: none; fill: black;}
    .h2 {stroke: none; fill: #aa0000;}
  </style>
  <defs
     id="defs3092">
    <path
       id="mark1"
       d="M -20,-1000 l 40,0 0,100 -40,0 z" />
    <path
       id="mark2"
       d="M -40,-1000 l 80,0 0,240 -80,0 z" />
    <path
       id="mark3"
       d="M -40,-1000 l 80,0 0,300 -80,0 z" />
    <path
       id="handh"
       d="M -50,-600  l 50,-50 50,50 0,800  -100,0 z" />
    <path
       id="handm"
       d="M -40,-900  l 40,-40 40,40 0,1180 -80,0  z" />
    <g
       id="hands">
      <path
         d="M -10,-910 l  10,-10 10,10 2,300 -24,0 z                M -13,-390 l  26,0         7,690 -40,0 z"
         id="path3100" />
      <path
         d="M   0,-620 a 120,120 0 0 1 0,240                           a 120,120 0 0 1 0,-240 z                M   0,-560 a  60,60  0 0 0 0,120                           a  60,60  0 0 0 0,-120 z"
         id="path3102" />
    </g>
    <g
       id="face1">
      <use
         xlink:href="#mark1"
         transform="rotate(06)"
         id="use3105" />
      <use
         xlink:href="#mark1"
         transform="rotate(12)"
         id="use3107" />
      <use
         xlink:href="#mark1"
         transform="rotate(18)"
         id="use3109" />
      <use
         xlink:href="#mark1"
         transform="rotate(24)"
         id="use3111" />
    </g>
    <g
       id="face2">
      <use
         xlink:href="#face1"
         id="use3114" />
      <use
         xlink:href="#face1"
         transform="rotate(30)"
         id="use3116" />
      <use
         xlink:href="#face1"
         transform="rotate(60)"
         id="use3118" />
      <use
         xlink:href="#mark3"
         id="use3120" />
      <use
         xlink:href="#mark2"
         transform="rotate(30)"
         id="use3122" />
      <use
         xlink:href="#mark2"
         transform="rotate(60)"
         id="use3124" />
    </g>
    <g
       id="face">
      <use
         xlink:href="#face2"
         id="use3127" />
      <use
         xlink:href="#face2"
         transform="rotate(90)"
         id="use3129" />
      <use
         xlink:href="#face2"
         transform="rotate(180)"
         id="use3131" />
      <use
         xlink:href="#face2"
         transform="rotate(270)"
         id="use3133" />
    </g>
  </defs>
  <circle
     class="bg"
     r="1024"
     id="circle3135" />
  <use
     xlink:href="#face"
     class="fc"
     id="use3137" />
  <!-- hands at 10:09:02 -->
</svg>
